<?xml version="1.0" encoding="UTF-8"?>
<svg version="1.1" xmlns="http://www.w3.org/2000/svg" width="290" height="260">
<path d="M0 0 C95.7 0 191.4 0 290 0 C290 85.8 290 171.6 290 260 C194.3 260 98.6 260 0 260 C0 174.2 0 88.4 0 0 Z " fill="#1F2021" transform="translate(0,0)"/>
<path d="M0 0 C1.14462708 -0.00262848 1.14462708 -0.00262848 2.31237793 -0.00531006 C4.83140344 -0.00970624 7.35035856 -0.00679814 9.86938477 -0.00341797 C11.62288934 -0.00409172 13.37639382 -0.00506234 15.12989807 -0.00631714 C18.80421844 -0.00779114 22.47851449 -0.00564934 26.15283203 -0.00097656 C30.8582144 0.00471633 35.56353968 0.00144262 40.26891994 -0.00454903 C43.89004444 -0.00816623 47.51115545 -0.00701064 51.13228035 -0.00442123 C52.86699493 -0.00375496 54.60171073 -0.00456992 56.33642387 -0.00690079 C58.76337796 -0.00944584 61.19024023 -0.00556038 63.6171875 0 C64.68885918 -0.00303635 64.68885918 -0.00303635 65.78218079 -0.00613403 C69.43822226 0.00934994 72.81759662 0.26146383 76.37329102 1.12939453 C76.37329102 1.78939453 76.37329102 2.44939453 76.37329102 3.12939453 C77.07454102 3.06365234 77.77579102 2.99791016 78.49829102 2.93017578 C85.08668204 3.38670831 91.40713125 8.45606707 96.31079102 12.62939453 C98.84020474 15.69535056 101.12398647 18.85183647 103.37329102 22.12939453 C105.57812614 20.03447787 107.32236254 17.86997974 109.06079102 15.37939453 C114.35825562 8.28131388 120.71502298 2.60532907 129.37329102 0.12939453 C132.14251701 -0.151675 134.58112812 -0.07367186 137.37329102 0.12939453 C136.38329102 3.09939453 135.39329102 6.06939453 134.37329102 9.12939453 C133.71329102 9.12939453 133.05329102 9.12939453 132.37329102 9.12939453 C132.37329102 9.78939453 132.37329102 10.44939453 132.37329102 11.12939453 C131.71329102 11.12939453 131.05329102 11.12939453 130.37329102 11.12939453 C129.71329102 14.75939453 129.05329102 18.38939453 128.37329102 22.12939453 C127.71329102 22.12939453 127.05329102 22.12939453 126.37329102 22.12939453 C126.37329102 25.42939453 126.37329102 28.72939453 126.37329102 32.12939453 C125.71329102 32.12939453 125.05329102 32.12939453 124.37329102 32.12939453 C124.37071289 32.80744141 124.36813477 33.48548828 124.36547852 34.18408203 C124.05433315 41.67231393 122.201002 47.29290812 117.37329102 53.12939453 C116.38329102 53.45939453 115.39329102 53.78939453 114.37329102 54.12939453 C113.53259686 52.52907316 112.70097597 50.92398282 111.87329102 49.31689453 C111.40922852 48.42357422 110.94516602 47.53025391 110.46704102 46.60986328 C109.37329102 44.12939453 109.37329102 44.12939453 109.37329102 41.12939453 C108.71329102 41.12939453 108.05329102 41.12939453 107.37329102 41.12939453 C107.40325668 42.0429068 107.43322235 42.95641907 107.46409607 43.89761353 C108.31990537 70.77403405 108.49486627 97.61522174 108.43579102 124.50439453 C108.41516602 137.91064453 108.39454102 151.31689453 108.37329102 165.12939453 C139.72329102 165.12939453 171.07329102 165.12939453 203.37329102 165.12939453 C203.70329102 137.73939453 204.03329102 110.34939453 204.37329102 82.12939453 C205.69329102 82.12939453 207.01329102 82.12939453 208.37329102 82.12939453 C208.37329102 81.46939453 208.37329102 80.80939453 208.37329102 80.12939453 C210.30797044 79.2895337 212.24614231 78.45771426 214.18579102 77.62939453 C215.80420898 76.93330078 215.80420898 76.93330078 217.45532227 76.22314453 C220.37329102 75.12939453 220.37329102 75.12939453 223.37329102 75.12939453 C223.41966845 87.26456105 223.45518776 99.39970642 223.47691536 111.53494358 C223.48734445 117.17005612 223.5014878 122.80510795 223.52416992 128.44018555 C223.54592932 133.88017815 223.55786622 139.32011242 223.5630455 144.76014519 C223.56673568 146.83372859 223.57394167 148.90730887 223.58475113 150.98086739 C223.59930708 153.88925151 223.60126723 156.79739575 223.6003418 159.70581055 C223.60753235 160.55961304 223.6147229 161.41341553 223.62213135 162.29309082 C223.60195126 168.16915609 222.96510382 173.18454084 220.12329102 178.44189453 C217.79193795 180.68998498 215.46563452 181.3047696 212.37329102 182.12939453 C212.37329102 182.78939453 212.37329102 183.44939453 212.37329102 184.12939453 C208.25054877 185.27918064 204.2765218 185.26227541 200.0246582 185.24291992 C198.76557144 185.24313896 198.76557144 185.24313896 197.48104858 185.24336243 C194.71072797 185.2426666 191.94047486 185.2348896 189.17016602 185.22705078 C187.24774207 185.22518543 185.32531765 185.22376208 183.40289307 185.22276306 C178.34601527 185.2189471 173.28916624 185.20912465 168.2322998 185.19805908 C163.0709675 185.18782518 157.90963054 185.1832612 152.74829102 185.17822266 C142.62327838 185.16750158 132.49828709 185.15043619 122.37329102 185.12939453 C122.37329102 185.78939453 122.37329102 186.44939453 122.37329102 187.12939453 C120.6480306 188.00830078 118.92277018 188.88720703 117.19750977 189.76611328 C112.93265057 192.9533421 112.02957739 197.02249895 111.23852539 202.10986328 C111.0356963 203.54667838 110.83782591 204.98420169 110.64477539 206.42236328 C110.14116255 209.61091797 109.78689535 211.69750453 107.51782227 214.06689453 C102.89646326 216.35652959 99.0936414 216.65005543 94.27563477 215.19189453 C90.10957755 212.23135858 89.80043532 209.09864566 88.81079102 204.25439453 C87.51861451 198.13252408 86.5753531 194.11121983 81.37329102 190.12939453 C75.92539732 186.77587062 71.44902141 185.54128009 65.09301758 185.59936523 C64.30823532 185.59063385 63.52345306 185.58190247 62.71488953 185.57290649 C60.14765945 185.54871297 57.58124481 185.55192913 55.01391602 185.55517578 C53.21887862 185.54271854 51.42385338 185.52838098 49.62884521 185.51225281 C44.92207296 185.47434503 40.21551079 185.45905923 35.50860596 185.44946289 C27.96163949 185.42966673 20.41483205 185.3728402 12.86803436 185.32069969 C10.23567799 185.30537524 7.60340137 185.29816784 4.9710083 185.29255676 C3.35933392 185.28554072 1.7476599 185.27843982 0.13598633 185.27124023 C-0.95970421 185.27203331 -0.95970421 185.27203331 -2.07752991 185.27284241 C-5.40228362 185.25311402 -8.44742702 185.16017285 -11.62670898 184.12939453 C-11.62670898 183.46939453 -11.62670898 182.80939453 -11.62670898 182.12939453 C-12.80233398 181.69626953 -12.80233398 181.69626953 -14.00170898 181.25439453 C-16.62670898 180.12939453 -16.62670898 180.12939453 -18.62670898 178.12939453 C-18.62670898 176.80939453 -18.62670898 175.48939453 -18.62670898 174.12939453 C-19.28670898 174.12939453 -19.94670898 174.12939453 -20.62670898 174.12939453 C-20.62670898 173.13939453 -20.62670898 172.14939453 -20.62670898 171.12939453 C-21.28670898 171.12939453 -21.94670898 171.12939453 -22.62670898 171.12939453 C-22.69683908 151.05809395 -22.74971677 130.98681829 -22.7821455 110.91542053 C-22.79760399 101.59559021 -22.81867406 92.27583609 -22.85302734 82.95605469 C-22.88296086 74.83143944 -22.90229139 66.7068794 -22.90897447 58.58221054 C-22.91288003 54.28160518 -22.92203742 49.98115771 -22.94389915 45.68060303 C-22.96432679 41.62917003 -22.97053015 37.57795933 -22.96603203 33.52647972 C-22.96685443 32.04304991 -22.97278268 30.55961232 -22.98432541 29.07622719 C-23.10843516 12.29745688 -23.10843516 12.29745688 -17.72436523 5.85205078 C-17.05276367 5.30419922 -16.38116211 4.75634766 -15.68920898 4.19189453 C-15.02018555 3.62599609 -14.35116211 3.06009766 -13.66186523 2.47705078 C-9.42566152 -0.32811291 -4.93261872 -0.01393601 0 0 Z " fill="#117DF8" transform="translate(29.626708984375,38.87060546875)"/>
<path d="M0 0 C4.69427819 1.84418072 5.39686223 4.08688594 7.47665405 8.51287842 C9.14178662 13.16996614 9.12071863 17.51519721 8.98828125 22.4140625 C8.97766914 23.92436539 8.97766914 23.92436539 8.96684265 25.46517944 C8.93911491 28.64424664 8.87641781 31.82147577 8.8125 35 C8.78738918 37.17054727 8.76458092 39.34112247 8.74414062 41.51171875 C8.68936005 46.80009391 8.60595543 52.0874156 8.5 57.375 C7.84 57.375 7.18 57.375 6.5 57.375 C6.561875 58.509375 6.62375 59.64375 6.6875 60.8125 C6.69624287 65.75222279 5.2133612 69.79751262 3.5 74.375 C3.190625 75.426875 2.88125 76.47875 2.5625 77.5625 C1.30132857 80.90089495 -0.34042759 83.54056121 -2.5 86.375 C-3.16 86.375 -3.82 86.375 -4.5 86.375 C-4.87125 87.1484375 -4.87125 87.1484375 -5.25 87.9375 C-5.86875 89.1440625 -5.86875 89.1440625 -6.5 90.375 C-6.93699219 91.26058594 -6.93699219 91.26058594 -7.3828125 92.1640625 C-9.99660237 97.16525099 -9.99660237 97.16525099 -12.75 98.3125 C-13.3275 98.333125 -13.905 98.35375 -14.5 98.375 C-14.5 99.035 -14.5 99.695 -14.5 100.375 C-15.16 100.375 -15.82 100.375 -16.5 100.375 C-16.5 101.035 -16.5 101.695 -16.5 102.375 C-21.87493188 106.82234316 -28.07866285 109.77648224 -34.5 112.375 C-35.44875 112.7875 -36.3975 113.2 -37.375 113.625 C-39.5 114.375 -39.5 114.375 -42.5 114.375 C-42.5 115.035 -42.5 115.695 -42.5 116.375 C-43.82 116.375 -45.14 116.375 -46.5 116.375 C-46.49777939 117.37058426 -46.49555878 118.36616852 -46.49327087 119.391922 C-46.47301683 128.76516975 -46.45801692 138.13841308 -46.44818783 147.51167774 C-46.44296477 152.33079247 -46.43587755 157.14988956 -46.42456055 161.96899414 C-46.41371123 166.61793377 -46.40771881 171.26685641 -46.40512276 175.91580772 C-46.40327221 177.6912532 -46.39965866 179.46669773 -46.39426994 181.242136 C-46.38703242 183.72500253 -46.38601021 186.20779848 -46.38647461 188.69067383 C-46.38287933 189.42794708 -46.37928406 190.16522034 -46.37557983 190.92483521 C-46.38186395 194.02083066 -46.51281257 196.41343772 -47.5 199.375 C-78.85 199.375 -110.2 199.375 -142.5 199.375 C-142.7475 179.265625 -142.7475 179.265625 -143 158.75 C-143.05220703 154.60614746 -143.10441406 150.46229492 -143.15820312 146.19287109 C-143.44559234 122.58572267 -143.56767024 98.98384497 -143.5 75.375 C-142.84 75.375 -142.18 75.375 -141.5 75.375 C-140.65930585 76.97532137 -139.82768495 78.58041171 -139 80.1875 C-138.5359375 81.08082031 -138.071875 81.97414063 -137.59375 82.89453125 C-136.5 85.375 -136.5 85.375 -136.5 88.375 C-129.44203226 82.07324309 -127.74491174 75.43337094 -126.5 66.375 C-125.84 66.375 -125.18 66.375 -124.5 66.375 C-124.5 63.075 -124.5 59.775 -124.5 56.375 C-123.84 56.375 -123.18 56.375 -122.5 56.375 C-121.84 52.745 -121.18 49.115 -120.5 45.375 C-119.84 45.375 -119.18 45.375 -118.5 45.375 C-118.5 44.715 -118.5 44.055 -118.5 43.375 C-117.84 43.375 -117.18 43.375 -116.5 43.375 C-115.84 40.735 -115.18 38.095 -114.5 35.375 C-117.965 34.88 -117.965 34.88 -121.5 34.375 C-121.5 34.045 -121.5 33.715 -121.5 33.375 C-116.055 32.88 -116.055 32.88 -110.5 32.375 C-110.5 31.715 -110.5 31.055 -110.5 30.375 C-109.695625 30.08625 -108.89125 29.7975 -108.0625 29.5 C-105.3673532 28.64237432 -105.3673532 28.64237432 -104.5 26.375 C-102.16836622 25.70241333 -99.8347961 25.03652556 -97.5 24.375 C-95.80712215 23.42004326 -94.14142963 22.4159066 -92.5 21.375 C-91.15592611 20.62739264 -89.8008453 19.89935742 -88.4375 19.1875 C-87.78652344 18.84332031 -87.13554687 18.49914062 -86.46484375 18.14453125 C-84.5 17.375 -84.5 17.375 -80.5 17.375 C-80.5 16.715 -80.5 16.055 -80.5 15.375 C-74.21164242 13.15557968 -68.29008908 13.03188557 -61.66015625 12.9609375 C-60.53806259 12.94157135 -59.41596893 12.9222052 -58.25987244 12.9022522 C-54.6941577 12.84271984 -51.12841022 12.79617622 -47.5625 12.75 C-45.13735612 12.71179601 -42.71222545 12.67274288 -40.28710938 12.6328125 C-34.3581907 12.53703999 -28.42919168 12.45191603 -22.5 12.375 C-22.5 11.715 -22.5 11.055 -22.5 10.375 C-19.86 10.045 -17.22 9.715 -14.5 9.375 C-14.5 8.715 -14.5 8.055 -14.5 7.375 C-12.52 7.045 -10.54 6.715 -8.5 6.375 C-8.5 5.715 -8.5 5.055 -8.5 4.375 C-5.69268038 1.3975398 -4.10291759 0.43959831 0 0 Z " fill="#1AB44D" transform="translate(280.5,4.625)"/>
<path d="M0 0 C1.28828705 -0.00637985 2.5765741 -0.0127597 3.90390015 -0.01933289 C5.31695519 -0.02086165 6.73001073 -0.02197556 8.14306641 -0.02270508 C9.58794183 -0.02591755 11.03281692 -0.02928162 12.47769165 -0.03279114 C15.50906122 -0.03878427 18.54040227 -0.04063088 21.57177734 -0.04003906 C25.45455536 -0.03993751 29.33715024 -0.05358196 33.21988487 -0.07081127 C36.20532062 -0.08193568 39.19071218 -0.08395812 42.17616653 -0.08342934 C43.60748551 -0.08460909 45.03880564 -0.0890306 46.47010422 -0.0967617 C48.47353508 -0.10656853 50.47701954 -0.1024175 52.48046875 -0.09765625 C54.19017349 -0.09979378 54.19017349 -0.09979378 55.93441772 -0.10197449 C58.85932108 0.14439542 60.36718619 0.70639344 62.86962891 2.14526367 C65.19398911 2.84257173 67.52636596 3.51438519 69.86962891 4.14526367 C69.86962891 4.80526367 69.86962891 5.46526367 69.86962891 6.14526367 C70.52962891 6.14526367 71.18962891 6.14526367 71.86962891 6.14526367 C71.86962891 6.80526367 71.86962891 7.46526367 71.86962891 8.14526367 C72.95244141 8.39276367 72.95244141 8.39276367 74.05712891 8.64526367 C78.9882882 11.2752153 81.07045978 15.93489331 82.92402649 21.06155396 C84.36139803 26.25224596 84.14021776 31.50073067 84.11254883 36.84790039 C84.11444717 38.00799118 84.11634552 39.16808197 84.11830139 40.36332703 C84.12199553 44.18393792 84.11132734 48.00435729 84.10009766 51.82495117 C84.09890537 54.48056316 84.09840199 57.13616718 84.09870911 59.79177856 C84.09777476 65.34810763 84.08911763 70.90438182 84.07543945 76.46069336 C84.05966993 82.89044692 84.05444306 89.32014064 84.05517501 95.74991214 C84.05578431 101.93771564 84.05069077 108.12549963 84.04238319 114.31329727 C84.03919139 116.94725552 84.03722793 119.58121555 84.03648949 122.21517563 C84.03433414 125.88314619 84.0256089 129.55103994 84.01489258 133.21899414 C84.01534576 134.31713943 84.01579895 135.41528473 84.01626587 136.54670715 C84.01200089 137.53925003 84.0077359 138.53179291 84.00334167 139.55441284 C84.00166583 140.42194624 83.99998999 141.28947964 83.99826336 142.18330193 C83.86962891 144.14526367 83.86962891 144.14526367 82.86962891 145.14526367 C80.1109909 145.2510897 77.37725656 145.29204221 74.61791992 145.29052734 C73.7529187 145.29388596 72.88791748 145.29724457 71.9967041 145.30070496 C69.12230006 145.3102448 66.24795407 145.31215958 63.37353516 145.31323242 C61.38435339 145.31644287 59.39517186 145.31980677 57.4059906 145.32331848 C53.23037163 145.32931733 49.05477337 145.33115761 44.87915039 145.33056641 C39.51756458 145.33046473 34.15611105 145.34411882 28.79455662 145.36133862 C24.68457931 145.37243431 20.57463423 145.37448637 16.46464348 145.37395668 C14.48741131 145.3751404 12.5101784 145.37958398 10.53296089 145.38728905 C7.7721227 145.39704017 5.01157487 145.39423033 2.25073242 145.38818359 C1.01555122 145.39661285 1.01555122 145.39661285 -0.24458313 145.4052124 C-5.90205572 145.37357904 -5.90205572 145.37357904 -8.13037109 143.14526367 C-8.37646675 140.68150139 -8.37646675 140.68150139 -8.37088013 137.5138855 C-8.37362946 136.31632629 -8.37637878 135.11876709 -8.37921143 133.88491821 C-8.37213271 132.55096336 -8.36486308 131.21700952 -8.35742188 129.88305664 C-8.35685796 128.48376473 -8.35717393 127.08447223 -8.35830688 125.68518066 C-8.35888219 121.87958382 -8.34709927 118.07411231 -8.33315897 114.26854467 C-8.32068111 110.2940366 -8.31948344 106.31952586 -8.31710815 102.34500122 C-8.3108847 94.81560538 -8.29446222 87.28626741 -8.27440917 79.75689709 C-8.25207704 71.1862843 -8.24106351 62.6156688 -8.2310183 54.04503417 C-8.21009672 36.41174449 -8.17490398 18.77850873 -8.13037109 1.14526367 C-5.35921501 -0.24031437 -3.10094679 0.01038487 0 0 Z " fill="#1F2123" transform="translate(35.13037109375,58.854736328125)"/>
<path d="M0 0 C5.00113397 1.38920388 6.21324896 3.7800627 9 8 C10.97581559 9.89400128 13.03005617 11.65014792 15.12890625 13.40625 C17 15 17 15 18.9375 17.125 C25.0545787 22.68598064 31.50258317 24.61901303 39.59375 25.640625 C42 26 42 26 43 27 C44.82071358 27.0999356 46.64529694 27.13080933 48.46875 27.1328125 C50.16257813 27.13474609 50.16257813 27.13474609 51.890625 27.13671875 C53.08171875 27.13285156 54.2728125 27.12898438 55.5 27.125 C56.66015625 27.12886719 57.8203125 27.13273437 59.015625 27.13671875 C60.15515625 27.13542969 61.2946875 27.13414063 62.46875 27.1328125 C64.02239258 27.13112061 64.02239258 27.13112061 65.60742188 27.12939453 C69.76998567 26.97063238 73.86762661 26.50867901 78 26 C78.0231502 36.2485039 78.04092879 46.49700161 78.05181217 56.74552631 C78.05703512 61.504107 78.06412215 66.26266983 78.07543945 71.02124023 C78.08628916 75.61182519 78.09228128 80.20239294 78.09487724 84.79298973 C78.09672772 86.54610655 78.10034114 88.29922241 78.10573006 90.05233192 C78.11296809 92.5040657 78.11398977 94.955728 78.11352539 97.4074707 C78.11712067 98.13539322 78.12071594 98.86331573 78.12442017 99.61329651 C78.11809644 102.69010181 77.98124887 105.05625338 77 108 C45.65 108 14.3 108 -18 108 C-18.020625 93.85125 -18.04125 79.7025 -18.0625 65.125 C-18.071604 60.65340332 -18.08070801 56.18180664 -18.09008789 51.57470703 C-18.09460449 46.12475586 -18.09460449 46.12475586 -18.09544373 43.57540894 C-18.09698181 41.79049429 -18.10050397 40.00558071 -18.10557556 38.22067261 C-18.11286464 35.52095731 -18.11390702 32.82130565 -18.11352539 30.12158203 C-18.1171235 29.32309908 -18.12072161 28.52461613 -18.12442875 27.70193672 C-18.11402634 22.22805267 -18.11402634 22.22805267 -17 20 C-16.01 20 -15.02 20 -14 20 C-14 19.34 -14 18.68 -14 18 C-13.401875 17.4225 -12.80375 16.845 -12.1875 16.25 C-9.72207845 13.71413784 -8.45569573 11.2025306 -7 8 C-6.34 8 -5.68 8 -5 8 C-4.9175 7.4225 -4.835 6.845 -4.75 6.25 C-3.79468987 3.3840696 -2.21530827 2.0009236 0 0 Z " fill="#1F2123" transform="translate(156,96)"/>
<path d="M0 0 C0.99112793 0.01694412 1.98225586 0.03388824 3.00341797 0.05134583 C4.07221191 0.08040512 5.14100586 0.10946442 6.2421875 0.1394043 C7.34062988 0.16205856 8.43907227 0.18471283 9.57080078 0.20805359 C11.89431528 0.25803151 14.21772698 0.31299944 16.54101562 0.37255859 C20.10270407 0.46325424 23.66445436 0.53798901 27.2265625 0.61010742 C29.48179209 0.66059898 31.73700153 0.71200067 33.9921875 0.7644043 C35.59537842 0.7988842 35.59537842 0.7988842 37.23095703 0.83406067 C38.22208496 0.86046127 39.21321289 0.88686188 40.234375 0.9140625 C41.54317627 0.94642754 41.54317627 0.94642754 42.87841797 0.97944641 C45.1171875 1.15112305 45.1171875 1.15112305 48.1171875 2.15112305 C48.1171875 2.81112305 48.1171875 3.47112305 48.1171875 4.15112305 C48.70113281 4.23749023 49.28507812 4.32385742 49.88671875 4.4128418 C52.73477037 5.3555419 53.86531278 6.69611117 55.8046875 8.96362305 C56.40667969 9.65069336 57.00867188 10.33776367 57.62890625 11.0456543 C59.98512461 14.37899208 60.24187223 17.55349714 60.32592773 21.56494141 C60.34521835 22.42941391 60.36450897 23.29388641 60.38438416 24.18455505 C60.44236677 28.11534027 60.49134674 32.04595211 60.5222168 35.97705078 C60.54384701 38.04981088 60.57800877 40.12247844 60.62475586 42.19482422 C60.6916491 45.18978464 60.71919178 48.18286553 60.73828125 51.1784668 C60.76611191 52.10255844 60.79394257 53.02665009 60.82261658 53.97874451 C60.80263932 60.22589681 60.80263932 60.22589681 58.85794067 62.8508606 C55.51158824 65.77938284 52.50702392 66.8375633 48.1171875 67.15112305 C48.1171875 67.81112305 48.1171875 68.47112305 48.1171875 69.15112305 C44.6521875 69.64612305 44.6521875 69.64612305 41.1171875 70.15112305 C41.1171875 52.99112305 41.1171875 35.83112305 41.1171875 18.15112305 C20.9871875 18.15112305 0.8571875 18.15112305 -19.8828125 18.15112305 C-18.74431796 12.45865034 -17.72656036 11.1823708 -13.8828125 7.15112305 C-13.2228125 7.15112305 -12.5628125 7.15112305 -11.8828125 7.15112305 C-11.5528125 6.16112305 -11.2228125 5.17112305 -10.8828125 4.15112305 C-9.8928125 4.15112305 -8.9028125 4.15112305 -7.8828125 4.15112305 C-7.8828125 3.49112305 -7.8828125 2.83112305 -7.8828125 2.15112305 C-4.6062002 -0.03328515 -3.77688937 -0.08306628 0 0 Z " fill="#1584F9" transform="translate(192.8828125,37.848876953125)"/>
<path d="M0 0 C1.98 0 3.96 0 6 0 C6 17.16 6 34.32 6 52 C-0.06152789 55.03076395 -8.43676986 54.15541651 -15.0625 54.125 C-16.3319043 54.13080078 -16.3319043 54.13080078 -17.62695312 54.13671875 C-22.84014744 54.1286799 -27.84083333 53.75150867 -33 53 C-33 52.34 -33 51.68 -33 51 C-36.465 50.505 -36.465 50.505 -40 50 C-40 49.34 -40 48.68 -40 48 C-40.7425 47.9175 -41.485 47.835 -42.25 47.75 C-45.59409094 46.8379752 -46.68306426 45.53414847 -49 43 C-50.36125 41.948125 -50.36125 41.948125 -51.75 40.875 C-52.4925 40.25625 -53.235 39.6375 -54 39 C-54 38.34 -54 37.68 -54 37 C-54.99 36.67 -55.98 36.34 -57 36 C-57.33 33.36 -57.66 30.72 -58 28 C-56.68563965 27.81993408 -56.68563965 27.81993408 -55.34472656 27.63623047 C-52.03185622 27.17200938 -48.72283915 26.68881441 -45.41455078 26.19335938 C-43.99407349 25.98443738 -42.57251788 25.78269483 -41.14990234 25.58886719 C-28.25017065 23.8227783 -17.43213837 20.57544703 -8.5234375 10.5390625 C-8.02070313 10.03117187 -7.51796875 9.52328125 -7 9 C-6.34 9 -5.68 9 -5 9 C-4.731875 8.443125 -4.46375 7.88625 -4.1875 7.3125 C-3.795625 6.549375 -3.40375 5.78625 -3 5 C-2.38125 3.63875 -2.38125 3.63875 -1.75 2.25 C-0.88375 1.13625 -0.88375 1.13625 0 0 Z " fill="#1F2121" transform="translate(227,57)"/>
<path d="M0 0 C0.0494981 6.03229582 0.08576625 12.06447296 0.10986328 18.09692383 C0.11991069 20.14837707 0.13355092 22.19981604 0.15087891 24.2512207 C0.17518246 27.20267262 0.18649582 30.1539349 0.1953125 33.10546875 C0.20563507 34.02023483 0.21595764 34.93500092 0.22659302 35.87748718 C0.22738078 40.36493055 0.13839902 43.92668284 -2 48 C-2.66 48 -3.32 48 -4 48 C-4.28875 49.0725 -4.5775 50.145 -4.875 51.25 C-5.72820109 54.09400364 -6.5636503 56.43508983 -8 59 C-8.66 59 -9.32 59 -10 59 C-10.26039063 59.5775 -10.52078125 60.155 -10.7890625 60.75 C-12.08444186 63.15689843 -13.55475902 64.96514546 -15.375 67 C-16.25285156 67.99 -16.25285156 67.99 -17.1484375 69 C-19.04953475 71.05350589 -21.01654973 73.02631535 -23 75 C-23.0093457 73.76958984 -23.01869141 72.53917969 -23.02832031 71.27148438 C-23.06838225 66.67900222 -23.13418566 62.08717858 -23.20751953 57.49511719 C-23.23563547 55.51278178 -23.25689638 53.53033621 -23.27099609 51.54785156 C-23.29255592 48.68758125 -23.33927215 45.8286223 -23.390625 42.96875 C-23.39185364 42.09134155 -23.39308228 41.21393311 -23.39434814 40.30993652 C-23.56946124 32.84786495 -25.65708796 27.68577721 -30.5625 22.0625 C-32.8974807 19.82784495 -32.8974807 19.82784495 -36 19 C-36 18.34 -36 17.68 -36 17 C-60.75 16.505 -60.75 16.505 -86 16 C-85 14 -85 14 -82.3046875 12.96484375 C-80.60699219 12.45630859 -80.60699219 12.45630859 -78.875 11.9375 C-77.20050781 11.42509766 -77.20050781 11.42509766 -75.4921875 10.90234375 C-68.64449049 9.13297238 -61.93890595 8.81347244 -54.91015625 8.68359375 C-53.96563095 8.66281265 -53.02110565 8.64203156 -52.04795837 8.62062073 C-49.05287427 8.55562646 -46.05770807 8.496475 -43.0625 8.4375 C-41.02277822 8.39426703 -38.98306452 8.35065127 -36.94335938 8.30664062 C-31.96232212 8.19999695 -26.9812029 8.0985906 -22 8 C-22 7.34 -22 6.68 -22 6 C-21.27554688 5.81824219 -20.55109375 5.63648438 -19.8046875 5.44921875 C-15.52616538 4.336803 -11.59167489 3.29583744 -7.625 1.3125 C-4.76474787 -0.11762606 -3.13743542 -0.1101775 0 0 Z " fill="#1F2323" transform="translate(277,23)"/>
<path d="M0 0 C0.98086578 0.02009628 1.96173157 0.04019257 2.97232056 0.06089783 C4.56455948 0.10145042 4.56455948 0.10145042 6.18896484 0.14282227 C7.27374115 0.16643326 8.35851746 0.19004425 9.47616577 0.21437073 C12.95087396 0.29112282 16.42536573 0.37509756 19.89990234 0.45922852 C22.25145415 0.51243763 24.60301661 0.5651781 26.95458984 0.61743164 C32.72816211 0.74675355 38.50157282 0.88201041 44.27490234 1.02172852 C41.62751318 2.48235702 40.380419 3.02172852 37.27490234 3.02172852 C36.94490234 4.01172852 36.61490234 5.00172852 36.27490234 6.02172852 C34.635504 6.75288875 32.96244078 7.40981656 31.27490234 8.02172852 C30.46794922 8.49610352 29.66099609 8.97047852 28.82958984 9.45922852 C17.9041714 15.82973489 5.66411524 16.18713857 -6.72509766 16.02172852 C-6.72509766 16.68172852 -6.72509766 17.34172852 -6.72509766 18.02172852 C-8.37509766 18.02172852 -10.02509766 18.02172852 -11.72509766 18.02172852 C-11.4165758 16.06276451 -11.10315586 14.10457139 -10.78759766 12.14672852 C-10.5265625 10.5109082 -10.5265625 10.5109082 -10.26025391 8.84204102 C-9.72509766 6.02172852 -9.72509766 6.02172852 -8.72509766 4.02172852 C-8.06509766 4.02172852 -7.40509766 4.02172852 -6.72509766 4.02172852 C-6.72509766 3.03172852 -6.72509766 2.04172852 -6.72509766 1.02172852 C-4.26468079 -0.20847992 -2.74757113 -0.06340549 0 0 Z " fill="#1F2422" transform="translate(177.72509765625,55.978271484375)"/>
<path d="M0 0 C19.14 0 38.28 0 58 0 C58 17.16 58 34.32 58 52 C59.98 51.505 59.98 51.505 62 51 C61.505 51.99 61.505 51.99 61 53 C59.68 53 58.36 53 57 53 C57 35.84 57 18.68 57 1 C55.02 1.33 53.04 1.66 51 2 C49.35400645 4.27018168 49.35400645 4.27018168 48 7 C45.44287212 9.74891247 43.1266986 11.91553426 40 14 C40 13.34 40 12.68 40 12 C37.36 12.66 34.72 13.32 32 14 C31.67 13.34 31.34 12.68 31 12 C29.02 12 27.04 12 25 12 C29.14812372 8.77368155 32.88770609 6.27807348 38 5 C38.33 4.34 38.66 3.68 39 3 C39.99 2.67 40.98 2.34 42 2 C28.14 1.67 14.28 1.34 0 1 C0 0.67 0 0.34 0 0 Z " fill="#1C826A" transform="translate(176,56)"/>
<path d="M0 0 C0.66 0 1.32 0 2 0 C2.67679658 1.725227 3.34102 3.45538939 4 5.1875 C4.37125 6.15042969 4.7425 7.11335938 5.125 8.10546875 C5.97923968 10.93132412 6.16636532 13.0730102 6 16 C6 16.33 6 16.66 6 17 C6.99 16.67 7.98 16.34 9 16 C8.01 18.97 7.02 21.94 6 25 C6.99 25.33 7.98 25.66 9 26 C9 27.98 9 29.96 9 32 C7.68 32.66 6.36 33.32 5 34 C5 34.66 5 35.32 5 36 C4.01 36 3.02 36 2 36 C2 36.66 2 37.32 2 38 C1.34 38 0.68 38 0 38 C0 25.46 0 12.92 0 0 Z " fill="#22BF47" transform="translate(137,80)"/>
<path d="M0 0 C0.33 0.66 0.66 1.32 1 2 C0.50460378 2.33154335 0.00920755 2.6630867 -0.50120068 3.00467682 C-4.38164535 5.85061201 -4.38164535 5.85061201 -6.65595436 9.95817566 C-6.88513319 12.24825558 -6.90918297 14.45482735 -6.85473633 16.75585938 C-6.8622995 17.61516556 -6.86986267 18.47447174 -6.87765503 19.3598175 C-6.89480772 22.18874976 -6.86327509 25.01497444 -6.83203125 27.84375 C-6.83634046 29.81621283 -6.84401509 31.78867092 -6.85490417 33.7611084 C-6.87581232 38.94750201 -6.85678291 44.13294973 -6.82763672 49.3192749 C-6.78813671 57.61953368 -6.81120269 65.91988064 -6.83063316 74.22016907 C-6.83201168 77.11515887 -6.81763747 80.00973041 -6.80049133 82.90466309 C-6.79748318 84.68448852 -6.79471855 86.46431438 -6.79223633 88.24414062 C-6.7833992 89.04535843 -6.77456207 89.84657623 -6.76545715 90.67207336 C-6.77176298 95.17816382 -7.2910443 98.75319819 -9 103 C-10.69167828 99.61664344 -10.12870768 95.7731199 -10.11352539 92.05224609 C-10.11367142 91.12536484 -10.11381744 90.19848358 -10.1139679 89.24351501 C-10.11326946 86.1701323 -10.10548027 83.09680967 -10.09765625 80.0234375 C-10.09579182 77.89637281 -10.09436804 75.7693077 -10.09336853 73.64224243 C-10.08954528 68.03624288 -10.07971662 62.43026912 -10.06866455 56.82427979 C-10.0584463 51.10681507 -10.05387002 45.38934621 -10.04882812 39.671875 C-10.0380942 28.44790532 -10.02102007 17.2239548 -10 6 C-8.27473958 5.0234375 -6.54947917 4.046875 -4.82421875 3.0703125 C-3.18017711 2.10571419 -1.58599412 1.05732941 0 0 Z " fill="#1A497B" transform="translate(262,107)"/>
<path d="M0 0 C-9.91881606 8.54120272 -29.40533601 5.33113199 -41.75 5.5625 C-43.91146527 5.60577469 -46.07292372 5.64939156 -48.234375 5.69335938 C-53.48951113 5.79952088 -58.74471595 5.90144778 -64 6 C-64 5.67 -64 5.34 -64 5 C-57.71164242 2.78057968 -51.79008908 2.65688557 -45.16015625 2.5859375 C-44.03806259 2.56657135 -42.91596893 2.5472052 -41.75987244 2.5272522 C-38.1941577 2.46771984 -34.62841022 2.42117622 -31.0625 2.375 C-28.63735612 2.33679601 -26.21222545 2.29774288 -23.78710938 2.2578125 C-17.8581907 2.16203999 -11.92919168 2.07691603 -6 2 C-6 1.34 -6 0.68 -6 0 C-2.25 -1.125 -2.25 -1.125 0 0 Z " fill="#196835" transform="translate(264,15)"/>
<path d="M0 0 C0.77111618 -0.00014603 1.54223236 -0.00029205 2.3367157 -0.0004425 C4.87977941 0.0002529 7.42276943 0.0080279 9.96582031 0.01586914 C11.73130249 0.01773464 13.49678519 0.01915792 15.26226807 0.02015686 C19.90486078 0.02397164 24.54742211 0.03379307 29.19000244 0.04486084 C33.92907283 0.05509729 38.6681483 0.05965927 43.40722656 0.06469727 C52.70281325 0.07541626 61.99837667 0.09248022 71.29394531 0.11352539 C71.29394531 0.44352539 71.29394531 0.77352539 71.29394531 1.11352539 C70.1478756 1.12898659 70.1478756 1.12898659 68.97865295 1.14476013 C61.69939723 1.24364719 54.42020747 1.34627167 47.14106083 1.45286465 C43.40078691 1.50751009 39.66050489 1.56082122 35.92016602 1.61083984 C9.6296838 0.57790777 9.6296838 0.57790777 -15.70605469 5.11352539 C-10.89241221 -0.21586449 -6.92058024 -0.03435104 0 0 Z " fill="#0B55BC" transform="translate(29.7060546875,38.886474609375)"/>
<path d="M0 0 C15.84 0 31.68 0 48 0 C48 0.33 48 0.66 48 1 C39.39916814 2.17018121 30.78931537 2.30092726 22.125 2.5 C12.71881861 2.71714378 3.36034807 2.95630219 -6 4 C-5.67 3.34 -5.34 2.68 -5 2 C-3.35 2 -1.7 2 0 2 C0 1.34 0 0.68 0 0 Z " fill="#1B8C45" transform="translate(207,30)"/>
<path d="M0 0 C4.58684196 0.55042104 8.64468501 1.48510783 13 3 C17.64402078 4.25514075 22.2273176 4.09358201 27 4 C27 4.66 27 5.32 27 6 C27.72018311 5.84152588 28.44036621 5.68305176 29.18237305 5.51977539 C31.85282412 5.02714994 34.37204546 4.79997351 37.08203125 4.68359375 C38.01337891 4.64169922 38.94472656 4.59980469 39.90429688 4.55664062 C40.86400391 4.51732422 41.82371094 4.47800781 42.8125 4.4375 C43.79154297 4.39431641 44.77058594 4.35113281 45.77929688 4.30664062 C48.18607027 4.2009774 50.59293983 4.09887673 53 4 C53 4.33 53 4.66 53 5 C45.536913 6.99649461 38.57968258 7.30259169 30.875 7.25 C29.73417969 7.25773437 28.59335938 7.26546875 27.41796875 7.2734375 C21.53560076 7.25977346 16.54521542 6.98413583 11 5 C9.783125 4.67 8.56625 4.34 7.3125 4 C4.65171266 3.19674345 2.4112388 2.35029373 0 1 C0 0.67 0 0.34 0 0 Z " fill="#1D7F41" transform="translate(181,117)"/>
<path d="M0 0 C0.99112793 0.01694412 1.98225586 0.03388824 3.00341797 0.05134583 C4.07221191 0.08040512 5.14100586 0.10946442 6.2421875 0.1394043 C7.34062988 0.16205856 8.43907227 0.18471283 9.57080078 0.20805359 C11.89431528 0.25803151 14.21772698 0.31299944 16.54101562 0.37255859 C20.10270407 0.46325424 23.66445436 0.53798901 27.2265625 0.61010742 C29.48179209 0.66059898 31.73700153 0.71200067 33.9921875 0.7644043 C35.59537842 0.7988842 35.59537842 0.7988842 37.23095703 0.83406067 C38.22208496 0.86046127 39.21321289 0.88686188 40.234375 0.9140625 C41.54317627 0.94642754 41.54317627 0.94642754 42.87841797 0.97944641 C45.1171875 1.15112305 45.1171875 1.15112305 48.1171875 2.15112305 C48.1171875 2.81112305 48.1171875 3.47112305 48.1171875 4.15112305 C47.56311218 3.98846451 47.00903687 3.82580597 46.43817139 3.65821838 C43.88104048 3.09952896 41.59865107 3.03111942 38.98144531 3.03759766 C37.45031097 3.03771095 37.45031097 3.03771095 35.88824463 3.03782654 C34.24586823 3.04556847 34.24586823 3.04556847 32.5703125 3.0534668 C30.88080475 3.05558922 30.88080475 3.05558922 29.15716553 3.05775452 C25.56047915 3.06335105 21.96385506 3.07590295 18.3671875 3.08862305 C15.92838632 3.09363849 13.48958416 3.09820132 11.05078125 3.10229492 C5.07289542 3.11331935 -0.90495409 3.13005406 -6.8828125 3.15112305 C-7.2128125 4.14112305 -7.5428125 5.13112305 -7.8828125 6.15112305 C-8.5428125 6.15112305 -9.2028125 6.15112305 -9.8828125 6.15112305 C-11.51957507 8.11115114 -11.51957507 8.11115114 -12.8828125 10.15112305 C-13.5428125 9.82112305 -14.2028125 9.49112305 -14.8828125 9.15112305 C-14.5528125 8.49112305 -14.2228125 7.83112305 -13.8828125 7.15112305 C-13.2228125 7.15112305 -12.5628125 7.15112305 -11.8828125 7.15112305 C-11.5528125 6.16112305 -11.2228125 5.17112305 -10.8828125 4.15112305 C-9.8928125 4.15112305 -8.9028125 4.15112305 -7.8828125 4.15112305 C-7.8828125 3.49112305 -7.8828125 2.83112305 -7.8828125 2.15112305 C-4.6062002 -0.03328515 -3.77688937 -0.08306628 0 0 Z " fill="#1174BC" transform="translate(192.8828125,37.848876953125)"/>
<path d="M0 0 C22.77 0 45.54 0 69 0 C69 0.66 69 1.32 69 2 C66.69 2.33 64.38 2.66 62 3 C62 2.67 62 2.34 62 2 C41.54 1.67 21.08 1.34 0 1 C0 0.67 0 0.34 0 0 Z " fill="#137CEF" transform="translate(37,40)"/>
<path d="M0 0 C1.65 0 3.3 0 5 0 C5.0494981 6.03229582 5.08576625 12.06447296 5.10986328 18.09692383 C5.11991069 20.14837707 5.13355092 22.19981604 5.15087891 24.2512207 C5.17518246 27.20267262 5.18649582 30.1539349 5.1953125 33.10546875 C5.20563507 34.02023483 5.21595764 34.93500092 5.22659302 35.87748718 C5.22738078 40.36493055 5.13839902 43.92668284 3 48 C2.34 48 1.68 48 1 48 C0.957279 46.33388095 0.95936168 44.66617115 1 43 C1.495 42.505 1.495 42.505 2 42 C2.89430728 36.96605171 3.19593094 31.9796328 3.31640625 26.87890625 C3.33718735 26.13414536 3.35796844 25.38938446 3.37937927 24.62205505 C3.4441821 22.26895375 3.50343365 19.91575157 3.5625 17.5625 C3.6057513 15.95637024 3.64936757 14.35025027 3.69335938 12.74414062 C3.79979122 8.82952751 3.90124851 4.91481409 4 1 C2.35 1.33 0.7 1.66 -1 2 C-0.67 1.34 -0.34 0.68 0 0 Z " fill="#1A542E" transform="translate(272,23)"/>
<path d="M0 0 C3.62137532 3.62137532 4.69769758 6.52112015 5.3125 11.5625 C4.9178196 14.64100714 3.71143258 16.43285113 2 19 C1.34 20.32 0.68 21.64 0 23 C0 15.41 0 7.82 0 0 Z " fill="#1F282B" transform="translate(138,82)"/>
<path d="M0 0 C0.66 0 1.32 0 2 0 C1.67 11.55 1.34 23.1 1 35 C1.66 35 2.32 35 3 35 C3 32.36 3 29.72 3 27 C3.66 26.67 4.32 26.34 5 26 C5.33 27.98 5.66 29.96 6 32 C6.99 31.34 7.98 30.68 9 30 C8.34 31.32 7.68 32.64 7 34 C6.34 34 5.68 34 5 34 C5 34.66 5 35.32 5 36 C4.01 36 3.02 36 2 36 C2 36.66 2 37.32 2 38 C1.34 38 0.68 38 0 38 C0 25.46 0 12.92 0 0 Z " fill="#1C7B6C" transform="translate(137,80)"/>
<path d="M0 0 C0.98086578 0.02009628 1.96173157 0.04019257 2.97232056 0.06089783 C4.56455948 0.10145042 4.56455948 0.10145042 6.18896484 0.14282227 C7.27374115 0.16643326 8.35851746 0.19004425 9.47616577 0.21437073 C12.95087396 0.29112282 16.42536573 0.37509756 19.89990234 0.45922852 C22.25145415 0.51243763 24.60301661 0.5651781 26.95458984 0.61743164 C32.72816211 0.74675355 38.50157282 0.88201041 44.27490234 1.02172852 C41.62751318 2.48235702 40.380419 3.02172852 37.27490234 3.02172852 C36.94490234 4.01172852 36.61490234 5.00172852 36.27490234 6.02172852 C35.61490234 5.69172852 34.95490234 5.36172852 34.27490234 5.02172852 C34.93490234 4.03172852 35.59490234 3.04172852 36.27490234 2.02172852 C30.63307445 2.13992376 24.99142467 2.26416855 19.34985352 2.39404297 C17.4302941 2.43737791 15.51069649 2.47905404 13.59106445 2.51904297 C10.83321621 2.57678029 8.07555994 2.64046487 5.31787109 2.70532227 C4.45840378 2.72203476 3.59893646 2.73874725 2.71342468 2.75596619 C1.9128212 2.77591141 1.11221771 2.79585663 0.28735352 2.81640625 C-0.41658035 2.83195053 -1.12051422 2.84749481 -1.84577942 2.86351013 C-3.95208849 2.96654456 -3.95208849 2.96654456 -6.72509766 4.02172852 C-6.72509766 3.03172852 -6.72509766 2.04172852 -6.72509766 1.02172852 C-4.26468079 -0.20847992 -2.74757113 -0.06340549 0 0 Z " fill="#1E3B39" transform="translate(177.72509765625,55.978271484375)"/>
<path d="M0 0 C1.8871875 0.0309375 1.8871875 0.0309375 3.8125 0.0625 C2.8225 3.0325 1.8325 6.0025 0.8125 9.0625 C0.1525 9.0625 -0.5075 9.0625 -1.1875 9.0625 C-1.5175 9.7225 -1.8475 10.3825 -2.1875 11.0625 C-2.1875 10.4025 -2.1875 9.7425 -2.1875 9.0625 C-2.8475 9.0625 -3.5075 9.0625 -4.1875 9.0625 C-4.1875 7.0825 -4.1875 5.1025 -4.1875 3.0625 C-6.1675 3.3925 -8.1475 3.7225 -10.1875 4.0625 C-7.08842497 0.66827497 -4.52992189 -0.07426101 0 0 Z " fill="#1581EE" transform="translate(163.1875,38.9375)"/>
<path d="M0 0 C0.33 0 0.66 0 1 0 C1.33 14.52 1.66 29.04 2 44 C3.65 44.33 5.3 44.66 7 45 C7 45.33 7 45.66 7 46 C3.535 46.495 3.535 46.495 0 47 C0 31.49 0 15.98 0 0 Z " fill="#1478DA" transform="translate(234,61)"/>
<path d="M0 0 C0.33 0 0.66 0 1 0 C1.0741916 5.62334306 1.12862179 11.2464008 1.16479492 16.87011719 C1.17987558 18.78292809 1.2003431 20.69570446 1.22631836 22.60839844 C1.26273347 25.3588107 1.27973349 28.10876554 1.29296875 30.859375 C1.30845261 31.71368103 1.32393646 32.56798706 1.33988953 33.44818115 C1.34158031 39.42152696 1.34158031 39.42152696 -0.51831055 42.57128906 C-1.00726807 43.04276367 -1.49622559 43.51423828 -2 44 C-2 41.36 -2 38.72 -2 36 C-1.34 36 -0.68 36 0 36 C0 24.12 0 12.24 0 0 Z " fill="#1F4A32" transform="translate(289,26)"/>
<path d="M0 0 C0.33 0.66 0.66 1.32 1 2 C0.50556396 2.27215332 0.01112793 2.54430664 -0.49829102 2.82470703 C-3.96411697 5.15790158 -5.74703039 6.859705 -6.67138672 11.02636719 C-6.91331616 14.6568433 -6.96971407 18.23670497 -6.9375 21.875 C-6.95361328 23.13570312 -6.96972656 24.39640625 -6.98632812 25.6953125 C-7.02158573 28.79798213 -7.02510869 31.89732835 -7 35 C-7.33 35 -7.66 35 -8 35 C-8.19879872 30.98044282 -8.34338441 26.9628108 -8.43945312 22.93945312 C-8.47951753 21.573386 -8.53399241 20.20765844 -8.60351562 18.84277344 C-9.16852951 7.45940541 -9.16852951 7.45940541 -6.18359375 3.73144531 C-4.17847901 2.22760926 -2.27715665 1.0378135 0 0 Z " fill="#1E3441" transform="translate(262,107)"/>
<path d="M0 0 C0.66 0.33 1.32 0.66 2 1 C0.89965026 4.19101425 0.17177711 4.91593886 -2.9375 6.4375 C-6.44211601 8.22556939 -7.11587143 9.6599539 -9 13 C-11.1875 14.3125 -11.1875 14.3125 -13 15 C-11.21169455 8.44288001 -5.46175262 3.71399178 0 0 Z " fill="#1569B9" transform="translate(150,43)"/>
<path d="M0 0 C0.99 0.33 1.98 0.66 3 1 C-4.76297789 5.71248522 -12.20148083 5.41732107 -21 5 C-21 4.67 -21 4.34 -21 4 C-20.43490723 3.91435791 -19.86981445 3.82871582 -19.28759766 3.74047852 C-16.73285367 3.35130182 -14.17893253 2.95696515 -11.625 2.5625 C-10.73554688 2.42779297 -9.84609375 2.29308594 -8.9296875 2.15429688 C-7.65351563 1.95610352 -7.65351563 1.95610352 -6.3515625 1.75390625 C-5.17327881 1.57323608 -5.17327881 1.57323608 -3.97119141 1.38891602 C-1.93388316 1.07761762 -1.93388316 1.07761762 0 0 Z " fill="#179649" transform="translate(208,75)"/>
<path d="M0 0 C-1.3937282 4.43458973 -3.60582235 6.87378374 -7 10 C-7.33 9.01 -7.66 8.02 -8 7 C-7.34 7 -6.68 7 -6 7 C-6 5.35 -6 3.7 -6 2 C-6.99 1.67 -7.98 1.34 -9 1 C-5.92677456 0.08941469 -3.19902639 -0.08886184 0 0 Z " fill="#1F9253" transform="translate(227,57)"/>
<path d="M0 0 C4.58684196 0.55042104 8.64468501 1.48510783 13 3 C17.64402078 4.25514075 22.2273176 4.09358201 27 4 C27 4.66 27 5.32 27 6 C17.79947345 6.36639265 7.80026255 6.41329696 0 1 C0 0.67 0 0.34 0 0 Z " fill="#1B8C3F" transform="translate(181,117)"/>
<path d="M0 0 C0.33 0.66 0.66 1.32 1 2 C0.00390625 4.6015625 0.00390625 4.6015625 -1.4375 7.625 C-1.91058594 8.62789062 -2.38367188 9.63078125 -2.87109375 10.6640625 C-3.24363281 11.43492188 -3.61617187 12.20578125 -4 13 C-4.99 13 -5.98 13 -7 13 C-9.18777466 14.9375006 -9.18777466 14.9375006 -11 17 C-10.125 9.25 -10.125 9.25 -9 7 C-8.67 8.32 -8.34 9.64 -8 11 C-4.32966073 7.72291137 -2.30718811 4.28477792 0 0 Z " fill="#158B7A" transform="translate(152,82)"/>
<path d="M0 0 C0.66 0.99 1.32 1.98 2 3 C1.01 3.66 0.02 4.32 -1 5 C-1.58481121 7.88595946 -1.58481121 7.88595946 -1.6875 11.125 C-1.75324219 12.22070312 -1.81898438 13.31640625 -1.88671875 14.4453125 C-1.94279297 15.70988281 -1.94279297 15.70988281 -2 17 C-2.66 17 -3.32 17 -4 17 C-4.3853211 6.16819572 -4.3853211 6.16819572 -2 1 C-1.34 0.67 -0.68 0.34 0 0 Z " fill="#1FB043" transform="translate(142,98)"/>
<path d="M0 0 C-0.59167969 0.19335938 -1.18335938 0.38671875 -1.79296875 0.5859375 C-6.82673319 2.23815916 -6.82673319 2.23815916 -11.75 4.1875 C-14.29147123 5.1052535 -16.31823783 5.15324355 -19 5 C-16.45019807 1.85906751 -13.93219559 1.18752823 -10.0625 0.25 C-8.50208984 -0.14445312 -8.50208984 -0.14445312 -6.91015625 -0.546875 C-4.1446277 -0.97748079 -2.59936934 -0.927004 0 0 Z " fill="#1B943F" transform="translate(201,35)"/>
<path d="M0 0 C0.66 0 1.32 0 2 0 C2.16682272 4.92127034 2.24828052 8.50343896 0 13 C-0.66 13 -1.32 13 -2 13 C-2.042721 11.33388095 -2.04063832 9.66617115 -2 8 C-1.67 7.67 -1.34 7.34 -1 7 C-0.63239269 4.67182036 -0.29758419 2.3381615 0 0 Z " fill="#1C8042" transform="translate(275,58)"/>
<path d="M0 0 C0.99 0.33 1.98 0.66 3 1 C2.34 2.32 1.68 3.64 1 5 C0.34 5 -0.32 5 -1 5 C-1.66 6.98 -2.32 8.96 -3 11 C-4.125 9.25 -4.125 9.25 -5 7 C-4.125 4.75 -4.125 4.75 -3 3 C-2.01 3 -1.02 3 0 3 C0 2.01 0 1.02 0 0 Z " fill="#1CA54A" transform="translate(150,99)"/>
<path d="M0 0 C0.88816406 0.01804688 1.77632812 0.03609375 2.69140625 0.0546875 C4.87870848 0.10172626 7.06379816 0.16742991 9.25 0.25 C9.25 0.58 9.25 0.91 9.25 1.25 C8.09242187 1.29898438 6.93484375 1.34796875 5.7421875 1.3984375 C4.2031033 1.47351478 2.6640419 1.54906043 1.125 1.625 C-0.01582031 1.67140625 -0.01582031 1.67140625 -1.1796875 1.71875 C-5.69632158 1.952369 -9.49152347 2.57654117 -13.75 4.25 C-10.09018696 -0.97242984 -5.79569289 -0.222582 0 0 Z " fill="#136CD0" transform="translate(27.75,39.75)"/>
<path d="M0 0 C0 4.49269081 -2.23824273 7.54407131 -5 11 C-7.8125 12.5 -7.8125 12.5 -10 13 C-8.48446596 9.52224821 -6.4226544 7.0442016 -3.875 4.25 C-3.15054687 3.45078125 -2.42609375 2.6515625 -1.6796875 1.828125 C-0.84824219 0.92320313 -0.84824219 0.92320313 0 0 Z " fill="#1C7C46" transform="translate(266,84)"/>
<path d="M0 0 C1 2 1 2 0.375 5.3125 C-1.11939091 9.32018472 -2.80390733 11.22444584 -6 14 C-6.66 13.67 -7.32 13.34 -8 13 C-7.360625 12.2575 -6.72125 11.515 -6.0625 10.75 C-4.21666593 8.2888879 -3.43930826 6.96533074 -3 4 C-2.34 4 -1.68 4 -1 4 C-0.67 2.68 -0.34 1.36 0 0 Z " fill="#1EAA46" transform="translate(270,78)"/>
<path d="M0 0 C1.26823485 3.65393537 0.75715321 6.49070026 0.0625 10.25 C-0.13214844 11.32765625 -0.32679688 12.4053125 -0.52734375 13.515625 C-0.68332031 14.33546875 -0.83929688 15.1553125 -1 16 C-1.99 16 -2.98 16 -4 16 C-3.67 15.67 -3.34 15.34 -3 15 C-2.71450351 11.96376745 -2.55131186 8.92742215 -2.37890625 5.8828125 C-2 3 -2 3 0 0 Z " fill="#125AB5" transform="translate(140,235)"/>
<path d="M0 0 C1.8871875 0.0309375 1.8871875 0.0309375 3.8125 0.0625 C2.8225 1.5475 2.8225 1.5475 1.8125 3.0625 C1.8125 2.4025 1.8125 1.7425 1.8125 1.0625 C0.8225 1.7225 -0.1675 2.3825 -1.1875 3.0625 C-2.1775 3.7225 -3.1675 4.3825 -4.1875 5.0625 C-4.1875 4.4025 -4.1875 3.7425 -4.1875 3.0625 C-6.1675 3.3925 -8.1475 3.7225 -10.1875 4.0625 C-7.08842497 0.66827497 -4.52992189 -0.07426101 0 0 Z " fill="#1673C4" transform="translate(163.1875,38.9375)"/>
<path d="M0 0 C1.32 0.33 2.64 0.66 4 1 C2.43880578 1.79423861 0.87598036 2.58527123 -0.6875 3.375 C-1.55761719 3.81585937 -2.42773438 4.25671875 -3.32421875 4.7109375 C-5.84772799 5.92664268 -8.38737532 6.99260958 -11 8 C-11 7.34 -11 6.68 -11 6 C-10.34 6 -9.68 6 -9 6 C-9 5.34 -9 4.68 -9 4 C-4.545 3.01 -4.545 3.01 0 2 C0 1.34 0 0.68 0 0 Z " fill="#1B6739" transform="translate(190,23)"/>
<path d="M0 0 C0.33 0 0.66 0 1 0 C1.08126087 2.08268593 1.13930839 4.16628658 1.1875 6.25 C1.23970703 7.99023438 1.23970703 7.99023438 1.29296875 9.765625 C0.97982934 13.22268407 0.34290892 14.51565563 -2 17 C-2 14.36 -2 11.72 -2 9 C-1.34 9 -0.68 9 0 9 C0 6.03 0 3.06 0 0 Z " fill="#1F3B2C" transform="translate(289,53)"/>
<path d="M0 0 C0.66 0 1.32 0 2 0 C3.60725635 3.21451269 3.05748185 6.43612536 3 10 C2.01 9.67 1.02 9.34 0 9 C0 6.03 0 3.06 0 0 Z " fill="#16B155" transform="translate(156,61)"/>
<path d="M0 0 C-0.66 0 -1.32 0 -2 0 C-2 0.66 -2 1.32 -2 2 C-3.96147874 3.38938077 -5.96166576 4.7260411 -8 6 C-8.66 5.67 -9.32 5.34 -10 5 C-7.30888151 0.96332227 -4.89232235 -1.63077412 0 0 Z " fill="#1CA148" transform="translate(266,105)"/>
<path d="M0 0 C0.33 0 0.66 0 1 0 C1 2.64 1 5.28 1 8 C0.34 8 -0.32 8 -1 8 C-1 8.66 -1 9.32 -1 10 C-1.99 10 -2.98 10 -4 10 C-4 9.34 -4 8.68 -4 8 C-3.34 8 -2.68 8 -2 8 C-1.34 5.36 -0.68 2.72 0 0 Z " fill="#18A966" transform="translate(166,40)"/>
<path d="M0 0 C0 0.99 0 1.98 0 3 C-2.30786395 5.01938095 -3.9999203 6.01663719 -7.11328125 5.96484375 C-9.08607721 5.71605421 -11.04526175 5.36444272 -13 5 C-13 4.67 -13 4.34 -13 4 C-7.555 3.505 -7.555 3.505 -2 3 C-2 2.34 -2 1.68 -2 1 C-1.34 0.67 -0.68 0.34 0 0 Z " fill="#196862" transform="translate(172,34)"/>
<path d="M0 0 C-1.41519715 2.0343459 -2.54982123 2.90410393 -4.98046875 3.421875 C-6.98176954 3.66273952 -8.9909944 3.83532741 -11 4 C-10 2 -10 2 -7.75 0.875 C-4.98386705 -0.00513321 -2.87951649 -0.1645438 0 0 Z " fill="#1CBA3D" transform="translate(243,107)"/>
<path d="M0 0 C0.99 0 1.98 0 3 0 C2.45773019 3.79588866 0.79872437 5.47211993 -2 8 C-1.34 5.36 -0.68 2.72 0 0 Z " fill="#1460B8" transform="translate(249,211)"/>
<path d="M0 0 C0.66 0 1.32 0 2 0 C1.4409112 3.24271506 0.5867822 4.93057424 -2 7 C-2.66 7 -3.32 7 -4 7 C-2.92598892 4.08482708 -2.22189824 2.22189824 0 0 Z " fill="#1572D0" transform="translate(141,51)"/>
<path d="M0 0 C1.875 0.125 1.875 0.125 4 1 C5.40666215 4.01427603 6.14845728 6.05977053 5.625 9.375 C5.41875 9.91125 5.2125 10.4475 5 11 C4.54625 9.9275 4.0925 8.855 3.625 7.75 C2.49911463 5.11937683 1.32079794 2.53999604 0 0 Z " fill="#1467C8" transform="translate(113,229)"/>
<path d="M0 0 C-5.2734375 3.22265625 -5.2734375 3.22265625 -7 4 C-7.66 3.67 -8.32 3.34 -9 3 C-6.27596221 -1.08605669 -4.4643819 -1.38549783 0 0 Z " fill="#1EC250" transform="translate(195,26)"/>
<path d="M0 0 C1.98 0 3.96 0 6 0 C6 0.66 6 1.32 6 2 C3.69 2.33 1.38 2.66 -1 3 C-0.67 2.01 -0.34 1.02 0 0 Z " fill="#1EBE3E" transform="translate(234,117)"/>
<path d="M0 0 C0.66 0 1.32 0 2 0 C2.33 1.65 2.66 3.3 3 5 C3.99 5.33 4.98 5.66 6 6 C6 7.32 6 8.64 6 10 C5.34 10 4.68 10 4 10 C3.32845067 8.71086513 2.66291141 7.41859796 2 6.125 C1.62875 5.40570313 1.2575 4.68640625 0.875 3.9453125 C0 2 0 2 0 0 Z " fill="#157EE4" transform="translate(140,83)"/>
<path d="M0 0 C2 1.75 2 1.75 4 4 C4 5.32 4 6.64 4 8 C3.34 8 2.68 8 2 8 C0.23537317 4.91190305 0 3.76687864 0 0 Z " fill="#156EAD" transform="translate(248,47)"/>
<path d="M0 0 C0.99 0 1.98 0 3 0 C2.67 1.65 2.34 3.3 2 5 C1.34 5 0.68 5 0 5 C-0.33 5.66 -0.66 6.32 -1 7 C-2 4 -2 4 -1.0625 1.8125 C-0.5365625 0.9153125 -0.5365625 0.9153125 0 0 Z " fill="#128BE0" transform="translate(162,43)"/>
<path d="M0 0 C2.64 0 5.28 0 8 0 C8 0.66 8 1.32 8 2 C5.69 2.33 3.38 2.66 1 3 C0.67 2.01 0.34 1.02 0 0 Z " fill="#1671D3" transform="translate(98,40)"/>
<path d="M0 0 C0.33 0.66 0.66 1.32 1 2 C-1.64 3.98 -4.28 5.96 -7 8 C-6 4 -6 4 -2.9375 1.75 C-1.968125 1.1725 -0.99875 0.595 0 0 Z " fill="#1F3C32" transform="translate(262,107)"/>
<path d="M0 0 C0.66 0.33 1.32 0.66 2 1 C1.34 2.65 0.68 4.3 0 6 C-1.65 5.67 -3.3 5.34 -5 5 C-3.35 3.35 -1.7 1.7 0 0 Z " fill="#16B06F" transform="translate(252,99)"/>
<path d="M0 0 C0.99 0 1.98 0 3 0 C3 0.99 3 1.98 3 3 C2.34 3 1.68 3 1 3 C1 4.32 1 5.64 1 7 C1.99 7.33 2.98 7.66 4 8 C2.68 8 1.36 8 0 8 C0 5.36 0 2.72 0 0 Z " fill="#1A9853" transform="translate(164,68)"/>
<path d="M0 0 C1.32 0 2.64 0 4 0 C4 0.66 4 1.32 4 2 C3.01 2.33 2.02 2.66 1 3 C0.67 3.66 0.34 4.32 0 5 C-0.66 5 -1.32 5 -2 5 C-2.33 5.66 -2.66 6.32 -3 7 C-3 6.01 -3 5.02 -3 4 C-2.34 4 -1.68 4 -1 4 C-0.67 2.68 -0.34 1.36 0 0 Z " fill="#12AB57" transform="translate(181,40)"/>
</svg>
